<mxfile host="app.diagrams.net" modified="2022-10-26T18:37:58.036Z" agent="5.0 (Windows NT 10.0; Win64; x64) AppleWebKit/537.36 (KHTML, like Gecko) Chrome/107.0.0.0 Safari/537.36" etag="z92no34HYneeiZRB0p8C" version="20.5.1" type="github">
  <diagram id="C5RBs43oDa-KdzZeNtuy" name="Page-1">
    <mxGraphModel dx="1467" dy="807" grid="1" gridSize="10" guides="1" tooltips="1" connect="1" arrows="1" fold="1" page="1" pageScale="1" pageWidth="827" pageHeight="1169" math="0" shadow="0">
      <root>
        <mxCell id="WIyWlLk6GJQsqaUBKTNV-0" />
        <mxCell id="WIyWlLk6GJQsqaUBKTNV-1" parent="WIyWlLk6GJQsqaUBKTNV-0" />
        <mxCell id="GWxVpezjqemB3VTmDpef-14" style="edgeStyle=orthogonalEdgeStyle;rounded=0;orthogonalLoop=1;jettySize=auto;html=1;exitX=0.5;exitY=1;exitDx=0;exitDy=0;entryX=0.5;entryY=0;entryDx=0;entryDy=0;" edge="1" parent="WIyWlLk6GJQsqaUBKTNV-1" source="GWxVpezjqemB3VTmDpef-0" target="GWxVpezjqemB3VTmDpef-2">
          <mxGeometry relative="1" as="geometry" />
        </mxCell>
        <object label="" id="GWxVpezjqemB3VTmDpef-0">
          <mxCell style="rounded=0;whiteSpace=wrap;html=1;" vertex="1" parent="WIyWlLk6GJQsqaUBKTNV-1">
            <mxGeometry x="354" y="40" width="120" height="60" as="geometry" />
          </mxCell>
        </object>
        <mxCell id="GWxVpezjqemB3VTmDpef-1" value="MyApp" style="text;strokeColor=none;fillColor=none;html=1;fontSize=24;fontStyle=1;verticalAlign=middle;align=center;" vertex="1" parent="WIyWlLk6GJQsqaUBKTNV-1">
          <mxGeometry x="364" y="50" width="100" height="40" as="geometry" />
        </mxCell>
        <mxCell id="GWxVpezjqemB3VTmDpef-18" style="rounded=0;orthogonalLoop=1;jettySize=auto;html=1;exitX=0.25;exitY=1;exitDx=0;exitDy=0;entryX=0.5;entryY=0;entryDx=0;entryDy=0;" edge="1" parent="WIyWlLk6GJQsqaUBKTNV-1" source="GWxVpezjqemB3VTmDpef-2" target="GWxVpezjqemB3VTmDpef-4">
          <mxGeometry relative="1" as="geometry" />
        </mxCell>
        <mxCell id="GWxVpezjqemB3VTmDpef-19" style="edgeStyle=none;rounded=0;orthogonalLoop=1;jettySize=auto;html=1;exitX=0.5;exitY=1;exitDx=0;exitDy=0;entryX=0.5;entryY=0;entryDx=0;entryDy=0;" edge="1" parent="WIyWlLk6GJQsqaUBKTNV-1" source="GWxVpezjqemB3VTmDpef-2" target="GWxVpezjqemB3VTmDpef-6">
          <mxGeometry relative="1" as="geometry" />
        </mxCell>
        <mxCell id="GWxVpezjqemB3VTmDpef-20" style="edgeStyle=none;rounded=0;orthogonalLoop=1;jettySize=auto;html=1;exitX=0.5;exitY=1;exitDx=0;exitDy=0;entryX=0.5;entryY=0;entryDx=0;entryDy=0;" edge="1" parent="WIyWlLk6GJQsqaUBKTNV-1" source="GWxVpezjqemB3VTmDpef-2" target="GWxVpezjqemB3VTmDpef-8">
          <mxGeometry relative="1" as="geometry" />
        </mxCell>
        <mxCell id="GWxVpezjqemB3VTmDpef-21" style="edgeStyle=none;rounded=0;orthogonalLoop=1;jettySize=auto;html=1;exitX=0.75;exitY=1;exitDx=0;exitDy=0;entryX=0.5;entryY=0;entryDx=0;entryDy=0;" edge="1" parent="WIyWlLk6GJQsqaUBKTNV-1" source="GWxVpezjqemB3VTmDpef-2" target="GWxVpezjqemB3VTmDpef-11">
          <mxGeometry relative="1" as="geometry" />
        </mxCell>
        <object label="" id="GWxVpezjqemB3VTmDpef-2">
          <mxCell style="rounded=0;whiteSpace=wrap;html=1;" vertex="1" parent="WIyWlLk6GJQsqaUBKTNV-1">
            <mxGeometry x="354" y="160" width="120" height="60" as="geometry" />
          </mxCell>
        </object>
        <mxCell id="GWxVpezjqemB3VTmDpef-3" value="Home" style="text;strokeColor=none;fillColor=none;html=1;fontSize=24;fontStyle=1;verticalAlign=middle;align=center;" vertex="1" parent="WIyWlLk6GJQsqaUBKTNV-1">
          <mxGeometry x="364" y="170" width="100" height="40" as="geometry" />
        </mxCell>
        <object label="" id="GWxVpezjqemB3VTmDpef-4">
          <mxCell style="rounded=0;whiteSpace=wrap;html=1;" vertex="1" parent="WIyWlLk6GJQsqaUBKTNV-1">
            <mxGeometry x="114" y="300" width="120" height="60" as="geometry" />
          </mxCell>
        </object>
        <mxCell id="GWxVpezjqemB3VTmDpef-5" value="Play" style="text;strokeColor=none;fillColor=none;html=1;fontSize=24;fontStyle=1;verticalAlign=middle;align=center;" vertex="1" parent="WIyWlLk6GJQsqaUBKTNV-1">
          <mxGeometry x="124" y="310" width="100" height="40" as="geometry" />
        </mxCell>
        <object label="" id="GWxVpezjqemB3VTmDpef-6">
          <mxCell style="rounded=0;whiteSpace=wrap;html=1;" vertex="1" parent="WIyWlLk6GJQsqaUBKTNV-1">
            <mxGeometry x="274" y="300" width="120" height="60" as="geometry" />
          </mxCell>
        </object>
        <mxCell id="GWxVpezjqemB3VTmDpef-7" value="Sound" style="text;strokeColor=none;fillColor=none;html=1;fontSize=24;fontStyle=1;verticalAlign=middle;align=center;" vertex="1" parent="WIyWlLk6GJQsqaUBKTNV-1">
          <mxGeometry x="284" y="310" width="100" height="40" as="geometry" />
        </mxCell>
        <object label="" id="GWxVpezjqemB3VTmDpef-8">
          <mxCell style="rounded=0;whiteSpace=wrap;html=1;" vertex="1" parent="WIyWlLk6GJQsqaUBKTNV-1">
            <mxGeometry x="438" y="300" width="120" height="60" as="geometry" />
          </mxCell>
        </object>
        <mxCell id="GWxVpezjqemB3VTmDpef-9" value="Store/Skin" style="text;strokeColor=none;fillColor=none;html=1;fontSize=24;fontStyle=1;verticalAlign=middle;align=center;" vertex="1" parent="WIyWlLk6GJQsqaUBKTNV-1">
          <mxGeometry x="448" y="310" width="100" height="40" as="geometry" />
        </mxCell>
        <object label="" id="GWxVpezjqemB3VTmDpef-11">
          <mxCell style="rounded=0;whiteSpace=wrap;html=1;" vertex="1" parent="WIyWlLk6GJQsqaUBKTNV-1">
            <mxGeometry x="594" y="300" width="120" height="60" as="geometry" />
          </mxCell>
        </object>
        <mxCell id="GWxVpezjqemB3VTmDpef-12" value="Mode" style="text;strokeColor=none;fillColor=none;html=1;fontSize=24;fontStyle=1;verticalAlign=middle;align=center;" vertex="1" parent="WIyWlLk6GJQsqaUBKTNV-1">
          <mxGeometry x="604" y="310" width="100" height="40" as="geometry" />
        </mxCell>
      </root>
    </mxGraphModel>
  </diagram>
</mxfile>
